<svg xmlns="http://www.w3.org/2000/svg" enable-background="new 0 0 24 24" viewBox="0 0 24 24"><path fill="#004071" fill-rule="evenodd" d="M22,24c1.105,0,2-0.895,2-2V2c0-1.105-0.895-2-2-2H2C0.895,0,0,0.895,0,2v20c0,1.105,0.895,2,2,2H22z" clip-rule="evenodd"/><path fill="#FFF" fill-rule="evenodd" d="M13 20.78h1.632v-.724C15.239 20.581 16.092 21 17.269 21 20.421 21 22 18.585 22 16.503 22 14.422 20.436 12 17.317 12c-3.119 0-4.299 2.609-4.299 2.609l1.412.79c0 0 .973-1.724 2.856-1.724 1.883 0 2.976 1.523 2.976 2.828 0 1.306-1.109 2.813-3.007 2.813-1.316 0-2.064-.749-2.4-1.209h2.417v-1.61H13V20.78L13 20.78zM10.75 20.78H9.118v-.724C8.511 20.581 7.658 21 6.481 21c-3.151 0-4.731-2.415-4.731-4.497C1.75 14.422 3.314 12 6.433 12c3.119 0 4.299 2.609 4.299 2.609l-1.412.79c0 0-.973-1.724-2.856-1.724-1.883 0-2.976 1.523-2.976 2.828 0 1.306 1.109 2.813 3.007 2.813 1.316 0 2.064-.749 2.4-1.209H6.48v-1.61h4.27V20.78L10.75 20.78z" clip-rule="evenodd"/></svg>